<?xml version="1.0" ?><svg style="enable-background:new 0 0 64 64;" version="1.1" viewBox="0 0 64 64" xml:space="preserve" xmlns="http://www.w3.org/2000/svg" xmlns:xlink="http://www.w3.org/1999/xlink"><style type="text/css">
	.st0{fill:#0072FF;}
</style><g id="GUIDES_64"/><g id="Layer_3"/><g id="Layer_2"><path class="st0" d="M30.4,6h-4.3c-0.8,0-1.5,0.5-1.7,1.3c-1.4,5.9-5.3,10.9-10.6,13.7c-0.6,0.3-1,1-1,1.7v6.1   c0,1.1,0.9,1.9,1.9,1.9h3.9c0.8,0,1.4,0.6,1.4,1.4v14.5c0,2.5,2.3,11.4,14.1,11.4c4.3,0,7.1-1.7,8.5-3c0.8-0.7,1.1-1.9,0.6-2.9   l-1-2.3c-0.6-1.3-2-1.9-3.3-1.4c-0.7,0.3-1.5,0.5-2.6,0.5c-3,0-4.4-1.8-4.4-4.5V32.1c0-0.8,0.6-1.4,1.4-1.4H40   c1.1,0,1.9-0.9,1.9-1.9v-5.5c0-1.1-0.9-1.9-1.9-1.9h-6.1c-1,0-1.8-0.8-1.8-1.8V7.7C32.1,6.8,31.3,6,30.4,6z"/></g></svg>